<svg xmlns="http://www.w3.org/2000/svg" xmlns:xlink="http://www.w3.org/1999/xlink" width="24" height="24" viewBox="0 0 24 24">
  <defs>
    <clipPath id="clip-path">
      <rect id="Rectangle_21960" data-name="Rectangle 21960" width="24" height="24" transform="translate(559 226)" fill="#8a6bf6" stroke="#707070" stroke-width="1"/>
    </clipPath>
  </defs>
  <g id="ic_Teacher_Active_24" transform="translate(-559 -226)" clip-path="url(#clip-path)">
    <g id="Group_48095" data-name="Group 48095" transform="translate(291.576 -180.48)">
      <path id="Path_97269" data-name="Path 97269" d="M288.39,419.427h-.052a.617.617,0,0,0-.458.168.681.681,0,0,0-.22.463v6.075a.2.2,0,0,1-.211.2h-16a.181.181,0,0,1-.133-.048.219.219,0,0,1-.062-.17v-5.993a.677.677,0,1,0-1.353,0v5.989a1.574,1.574,0,0,0,1.5,1.63h16.075a1.587,1.587,0,0,0,1.535-1.626v-5.981A.67.67,0,0,0,288.39,419.427Z" transform="translate(-0.033 -0.267)" fill="#8a6bf6"/>
      <path id="Path_97270" data-name="Path 97270" d="M287.908,412.8H270.994a1.55,1.55,0,0,0-1.1.444,1.668,1.668,0,0,0-.474,1.182v2.953a1.611,1.611,0,0,0,1.206,1.573l6.788,1.571v1.266a.692.692,0,0,0,.163.492.63.63,0,0,0,.437.226h2.768a.627.627,0,0,0,.426-.167.687.687,0,0,0,.22-.472v-1.346l6.786-1.573a1.612,1.612,0,0,0,1.2-1.574v-2.948A1.578,1.578,0,0,0,287.908,412.8Zm-7.829,6.946v1.353h-1.311v-1.353Zm.74-1.414h-2.713a.642.642,0,0,0-.472.168.685.685,0,0,0-.219.47v.131l-6.477-1.5a.21.21,0,0,1-.162-.222v-2.964a.192.192,0,0,1,.212-.2h16.885c.109-.025.191.075.2.219v2.96a.208.208,0,0,1-.173.214l-6.465,1.5v-.052A.671.671,0,0,0,280.819,418.328Z" transform="translate(0 -0.089)" fill="#8a6bf6"/>
      <path id="Path_97271" data-name="Path 97271" d="M276.782,412.272a.693.693,0,0,0,.677-.707v-.472a.2.2,0,0,1,.046-.139.2.2,0,0,1,.166-.064h4.455c.1-.017.19.075.2.219v.457a.677.677,0,1,0,1.353,0v-.453a1.641,1.641,0,0,0-.433-1.143,1.5,1.5,0,0,0-1.083-.488h-4.52a1.587,1.587,0,0,0-1.534,1.627v.457A.693.693,0,0,0,276.782,412.272Z" transform="translate(-0.466 0)" fill="#8a6bf6"/>
    </g>
  </g>
</svg>
