<svg xmlns="http://www.w3.org/2000/svg" width="16" height="16" viewBox="0 0 16 16">
  <g id="ic_Phone_16" transform="translate(0 -0.002)">
    <path id="Path_96592" data-name="Path 96592" d="M10.347,16.1a7.174,7.174,0,0,1-1.282-.118,11.157,11.157,0,0,1-5.647-3.19A11.351,11.351,0,0,1,.138,7.139,6.367,6.367,0,0,1,1.914,1.22c.195-.2.4-.389.613-.567A2.33,2.33,0,0,1,5.676.787L5.684.8l1.057,1.1a2.283,2.283,0,0,1-.753,3.722,5.043,5.043,0,0,0-.835.412c-.582.593-.953,1.557,1.225,3.738.707.708,1.753,1.649,2.68,1.649a1.48,1.48,0,0,0,1.054-.486,4.852,4.852,0,0,0,.386-.8,2.279,2.279,0,0,1,3.724-.767l1.086,1.051.008.008a2.334,2.334,0,0,1,.14,3.144c-.166.2-.343.393-.526.577A6.34,6.34,0,0,1,10.347,16.1ZM4.031,1.353a1.088,1.088,0,0,0-.7.258c-.182.152-.359.316-.526.486a5.1,5.1,0,0,0-1.44,4.8A10.1,10.1,0,0,0,4.3,11.906a9.91,9.91,0,0,0,4.99,2.848,5.1,5.1,0,0,0,4.756-1.5c.157-.158.309-.324.451-.494a1.079,1.079,0,0,0-.061-1.457l-1.085-1.05-.008-.008a1.029,1.029,0,0,0-1.684.346,4.817,4.817,0,0,1-.643,1.2,2.713,2.713,0,0,1-1.957.871c-1.376,0-2.627-1.077-3.564-2.015A8.172,8.172,0,0,1,3.728,8.265,2.673,2.673,0,0,1,4.284,5.13a4.962,4.962,0,0,1,1.232-.671,1.034,1.034,0,0,0,.336-1.686l-.008-.008-1.056-1.1a1.071,1.071,0,0,0-.757-.313Z" transform="translate(0 -0.1)" fill="#8a6bf6"/>
    <path id="Path_96593" data-name="Path 96593" d="M279.795,7.472a.625.625,0,0,1-.622-.569,6.236,6.236,0,0,0-5.654-5.654A.625.625,0,1,1,273.631,0a7.5,7.5,0,0,1,6.787,6.787.625.625,0,0,1-.566.678l-.057,0Zm-4.868,0a.625.625,0,0,0,.4-.79A2.528,2.528,0,0,0,273.784,5.1a.625.625,0,0,0-.416,1.178,1.27,1.27,0,0,1,.769.8.624.624,0,0,0,.79.395Zm2.455-.005a.625.625,0,0,0,.53-.707,5.034,5.034,0,0,0-4.248-4.248.625.625,0,0,0-.177,1.237,3.777,3.777,0,0,1,3.188,3.188.624.624,0,0,0,.707.53Z" transform="translate(-264.421 0)" fill="#8a6bf6"/>
  </g>
</svg>
