<svg xmlns="http://www.w3.org/2000/svg" id="artboard-svg" width="18" height="15" viewBox="0 0 18 15"><defs><style>.cls-1, .cls-11, .cls-15, .cls-5, .cls-7 { fill: #fff; } .cls-1 { stroke: #707070; } .cls-2 { clip-path: url(#clip-_311._Đăng_ký); } .cls-3 { fill: #f1f2f7; } .cls-4, .cls-9 { fill: #62768e; } .cls-12, .cls-16, .cls-4, .cls-7 { font-size: 14px; } .cls-12, .cls-16, .cls-4 { font-family: GoogleSans-Regular, Google Sans; } .cls-6 { fill: url(#linear-gradient); } .cls-7 { font-family: GoogleSans-Medium, Google Sans; font-weight: 500; } .cls-8 { clip-path: url(#clip-path); } .cls-10 { fill: #4e5b6a; font-size: 20px; font-family: GoogleSans-Bold, Google Sans; font-weight: 700; } .cls-11 { stroke: #b9bac4; stroke-width: 0.75px; } .cls-12 { fill: #a4a6b7; } .cls-13, .cls-18 { fill: none; } .cls-13 { stroke: #878787; stroke-linecap: round; stroke-linejoin: round; stroke-width: 1.5px; } .cls-14, .cls-16 { fill: #8a6bf6; } .cls-17, .cls-19 { stroke: none; } .cls-19 { fill: #b9bac4; }</style><linearGradient id="linear-gradient" x2="1" y1="1" gradientUnits="objectBoundingBox"><stop offset="0" stop-color="#583fed"/><stop offset="1" stop-color="#953fed"/></linearGradient><clipPath id="clip-path"><path id="Rectangle_22044" d="M0 0h24v24H0z" class="cls-1" data-name="Rectangle 22044" transform="translate(24 25)"/></clipPath><clipPath id="clip-_311._Đăng_ký"><path d="M0 0h1366v768H0z"/></clipPath></defs><g transform="translate(-544 -418)"><g id="_311._Đăng_ký" class="cls-2" data-name="311. Đăng ký"><g id="Group_47603" data-name="Group 47603" transform="translate(-6345 -771)"><g id="ic_email_xau" transform="translate(6889.111 1189.188)"><path id="Path_96870" d="M11.343 65.69H3.472A3.476 3.476 0 0 1 0 62.218v-4.746A3.476 3.476 0 0 1 3.472 54h7.87a3.476 3.476 0 0 1 3.472 3.472v4.745a3.476 3.476 0 0 1-3.471 3.473zM3.472 55.157a2.317 2.317 0 0 0-2.315 2.315v4.745a2.317 2.317 0 0 0 2.315 2.315h7.87a2.317 2.317 0 0 0 2.315-2.315v-4.745a2.317 2.317 0 0 0-2.315-2.315z" class="cls-14" data-name="Path 96870" transform="translate(0 -54)"/><path id="Path_96871" d="M85.106 183.932a3.467 3.467 0 0 1-2.106-.71l-2.774-2.156a.579.579 0 0 1 .71-.914L83.7 182.3a2.32 2.32 0 0 0 2.806 0l2.86-2.185a.579.579 0 0 1 .7.92l-2.86 2.185a3.469 3.469 0 0 1-2.1.712z" class="cls-14" data-name="Path 96871" transform="translate(-77.685 -176.353)"/></g></g></g></g></svg>