<svg id="ic_Key_16" xmlns="http://www.w3.org/2000/svg" width="16" height="16" viewBox="0 0 16 16">
  <path id="Path_96595" data-name="Path 96595" d="M4.344,16H3.75A3.754,3.754,0,0,1,0,12.25V3.75A3.754,3.754,0,0,1,3.75,0h8.5A3.754,3.754,0,0,1,16,3.75V6.625a.625.625,0,1,1-1.25,0V3.75a2.5,2.5,0,0,0-2.5-2.5H3.75a2.5,2.5,0,0,0-2.5,2.5v8.5a2.5,2.5,0,0,0,2.5,2.5h.594a.625.625,0,0,1,0,1.25ZM16,12.875v-1.25A3.129,3.129,0,0,0,12.875,8.5h-.406A3.125,3.125,0,0,0,9.6,10.375H6.885a3.207,3.207,0,0,0-2.241.924,1.341,1.341,0,0,0,0,1.9,3.207,3.207,0,0,0,2.241.924H9.6A3.125,3.125,0,0,0,12.469,16h.406A3.129,3.129,0,0,0,16,12.875Zm-5.952-1.25a.625.625,0,0,0,.605-.469A1.874,1.874,0,0,1,12.469,9.75h.406a1.877,1.877,0,0,1,1.875,1.875v1.25a1.877,1.877,0,0,1-1.875,1.875h-.406a1.874,1.874,0,0,1-1.816-1.406.625.625,0,0,0-.605-.469H6.885a1.948,1.948,0,0,1-1.361-.562.091.091,0,0,1,0-.127,1.948,1.948,0,0,1,1.361-.562Z" transform="translate(0 0)" fill="#8a6bf6"/>
  <path id="Path_96596" data-name="Path 96596" d="M90.375,110.25h-9.75a.625.625,0,0,1,0-1.25h9.75a.625.625,0,0,1,0,1.25Zm.156,6.813a.781.781,0,1,0,.781.781A.781.781,0,0,0,90.531,117.063Z" transform="translate(-77.5 -105.594)" fill="#8a6bf6"/>
</svg>
