<svg xmlns="http://www.w3.org/2000/svg" width="32.837" height="29.5" viewBox="0 0 32.837 29.5">
  <g id="Group_48110" data-name="Group 48110" transform="translate(-79.889 -36.22)">
    <path id="Path_97341" data-name="Path 97341" d="M117.34,94.778V99.3a1.126,1.126,0,0,1-.559.97l-8.72,5.068a8.4,8.4,0,0,1-7.605,0l-8.8-5.092a1.123,1.123,0,0,1-.562-.973V94.752a1.123,1.123,0,0,1,1.685-.973l7.7,4.439a8.368,8.368,0,0,0,7.605,0l7.591-4.41a1.123,1.123,0,0,1,1.673.97Z" transform="translate(-7.908 -40.531)" fill="#fbac00"/>
    <path id="Path_97342" data-name="Path 97342" d="M111.2,43.614,99.912,37.1a8.042,8.042,0,0,0-7.323,0l-11.2,6.515c-2.014,1.176-2,3.069.026,4.242l11.268,6.524a8.048,8.048,0,0,0,7.326,0l11.21-6.512c2.014-1.176,2-3.072-.026-4.245" fill="#8a6bf6"/>
    <path id="Path_97343" data-name="Path 97343" d="M119.454,52.472l-.914-.529a.858.858,0,0,0-.785,0l-6.97,4.039-1.588-.914,4.68-2.719a.241.241,0,0,0,0-.456l-2.39-1.379a.882.882,0,0,0-.785,0l-4.666,2.719-1.588-.917,6.967-4.048a.241.241,0,0,0,0-.456l-.914-.529a4.115,4.115,0,0,0-3.719,0l-7.876,4.569a1.138,1.138,0,0,0,0,2.152l8.981,5.18a4.115,4.115,0,0,0,3.719,0l7.861-4.569a1.137,1.137,0,0,0-.015-2.152" transform="translate(-12.886 -7.498)" fill="#fff"/>
  </g>
</svg>
